<?xml version="1.0" encoding="utf-8"?>
<!-- Generator: Adobe Illustrator 16.0.4, SVG Export Plug-In . SVG Version: 6.00 Build 0)  -->
<!DOCTYPE svg PUBLIC "-//W3C//DTD SVG 1.1//EN" "http://www.w3.org/Graphics/SVG/1.1/DTD/svg11.dtd">
<svg version="1.1" id="Layer_1" xmlns="http://www.w3.org/2000/svg" xmlns:xlink="http://www.w3.org/1999/xlink" x="0px" y="0px"
	 width="2809.182px" height="1141.703px" viewBox="0 0 2809.182 1141.703" enable-background="new 0 0 2809.182 1141.703"
	 xml:space="preserve">
<g>
	<path fill="#535252" d="M0,7h223.999c62.3,0,110.6,17.5,142.799,49.7c27.3,27.3,42,65.8,42,112v1.4
		c0,79.1-42.7,128.799-105,151.899l119.699,174.999h-126l-105-156.799h-84.7v156.799H0V7z M216.999,244.999
		c52.5,0,82.6-28,82.6-69.299v-1.4c0-46.2-32.2-70-84.7-70h-107.1v140.699H216.999z"/>
	<path fill="#535252" d="M993.995,425.598l63.7-76.299c44.1,36.4,90.3,59.5,146.299,59.5c44.1,0,70.7-17.5,70.7-46.2v-1.4
		c0-27.3-16.8-41.3-98.7-62.3c-98.7-25.2-162.399-52.5-162.399-149.799v-1.4c0-88.9,71.4-147.7,171.499-147.7
		c71.4,0,132.3,22.4,182,62.3l-56,81.2c-43.399-30.1-86.1-48.3-127.399-48.3s-63,18.9-63,42.7v1.4c0,32.2,21,42.7,105.7,64.399
		c99.399,25.9,155.399,61.6,155.399,147v1.4c0,97.3-74.2,151.899-179.899,151.899
		C1127.695,503.998,1052.795,478.098,993.995,425.598z"/>
	<path fill="#535252" d="M1440.595,7h349.599v95.9h-242.499v99.399h210.999v95.899h-210.999v102.9h245.999v95.899h-353.099V7z"/>
	<path fill="#535252" d="M14,607h177.799c107.799,0,181.999,55.3,181.999,149.799v1.4c0,102.899-88.9,156.099-191.099,156.099H50.4
		v182.699H14V607z M184.799,880.699c91,0,152.599-47.6,152.599-120.4v-1.4c0-77.7-60.2-118.299-148.399-118.299H50.4v240.099
		H184.799z"/>
	<path fill="#535252" d="M998.893,893.299V607h36.4v282.799c0,115.5,62.3,182,165.899,182c99.399,0,163.1-60.2,163.1-178.5V607
		h36.399v282.099c0,140.699-81.899,215.599-200.899,215.599C1082.193,1104.698,998.893,1030.499,998.893,893.299z"/>
	<path fill="#535252" d="M1503.59,607h163.1c153.999,0,260.398,105.7,260.398,243.599v1.4
		c0,137.899-106.399,244.999-260.398,244.999h-163.1V607z M1666.689,1063.398c136.499,0,222.599-93.099,222.599-209.999v-1.4
		c0-116.199-86.1-211.399-222.599-211.399h-126.7v422.798H1666.689z"/>
	<path fill="#535252" d="M2015.988,607h205.799c60.2,0,108.5,18.9,137.899,48.3c23.1,23.1,37.1,56,37.1,91v1.4
		c0,81.899-60.899,128.799-143.499,139.999l161.699,209.299h-46.2l-156.099-202.999h-160.3v202.999h-36.399V607z M2217.587,861.099
		c81.9,0,142.8-41.3,142.8-112v-1.4c0-65.8-51.8-107.1-140.699-107.1h-167.3v220.499H2217.587z"/>
	<path fill="#535252" d="M2487.083,607h318.599v33.6h-282.199v192.499h250.699v33.6h-250.699v196.699h285.699v33.6h-322.099V607z
		 M2702.264,478.608c13.498-16.515,28.829-10.425,35.321-5.542c4.728,3.017,16.939,17.466,8.08,32.505
		c-25.288,40.774-93.248,47.656-122.155,45.466c-8.124-0.012-6.727-7.989-0.323-7.598
		C2699.448,545.551,2684.554,500.565,2702.264,478.608z"/>
	<path fill="#535252" d="M449.394,363.399v-1.4c0-139.299,109.9-253.399,261.099-253.399s259.699,112.7,259.699,251.999v1.4
		c0,139.299-109.899,253.399-261.099,253.399C557.894,615.398,449.394,502.699,449.394,363.399z M857.493,363.399v-1.4
		c0-84-61.6-153.999-148.399-153.999c-86.8,0-147,68.6-147,152.599v1.4c0,84,61.6,154,148.399,154S857.493,447.399,857.493,363.399z
		"/>
	<g>
		<path fill="#535252" d="M424.899,713.399v-1.4c0-133.699,98.7-253.399,247.099-253.399s245.699,118.3,245.699,251.999v1.4
			c0,133.7-98.699,253.399-247.099,253.399S424.899,847.099,424.899,713.399z M879.897,713.399v-1.4
			c0-121.099-88.199-220.499-209.299-220.499s-207.899,98-207.899,219.099v1.4c0,121.1,88.2,220.499,209.299,220.499
			S879.897,834.499,879.897,713.399z"/>
		<path fill="#FFFFFF" d="M477.39,713.101v-1.102c0-105.217,77.674-199.417,194.46-199.417s193.357,93.098,193.357,198.316v1.102
			c0,105.218-77.673,199.417-194.459,199.417S477.39,818.318,477.39,713.101z M879.897,713.399v-1.4
			c0-121.099-88.199-220.499-209.299-220.499s-207.899,98-207.899,219.099v1.4c0,121.1,88.2,220.499,209.299,220.499
			S879.897,834.499,879.897,713.399z"/>
		<path fill="#FFFFFF" d="M424.899,713.399v-1.4c0-133.699,98.7-253.399,247.099-253.399s245.699,118.3,245.699,251.999v1.4
			c0,133.7-98.699,253.399-247.099,253.399S424.899,847.099,424.899,713.399z M930.121,713.736v-1.737
			c0-150.255-109.435-273.587-259.691-273.587S412.476,560.006,412.476,710.262v1.737c0,150.256,109.436,273.587,259.691,273.587
			C822.423,985.586,930.121,863.992,930.121,713.736z"/>
	</g>
	<g>
		<defs>
			<path id="SVGID_1_" d="M640.718,459.851v-0.852c0-84.735,63.338-154.141,150.479-154.141c87.14,0,149.671,68.555,149.671,153.29
				v0.852c0,84.735-63.338,154.141-150.479,154.141S640.718,544.585,640.718,459.851z M912.719,460.219v-1.22
				c0-73.187-50.85-134.176-122.503-134.176s-121.348,59.77-121.348,132.957v1.22c0,73.187,50.85,134.177,122.504,134.177
				C863.024,593.176,912.719,533.406,912.719,460.219z"/>
		</defs>
		<clipPath id="SVGID_2_">
			<use xlink:href="#SVGID_1_"  overflow="visible"/>
		</clipPath>
		<rect x="790.042" y="266.463" clip-path="url(#SVGID_2_)" fill="#FFFFFF" width="159.059" height="366.783"/>
	</g>
	<g>
		<defs>
			<path id="SVGID_3_" d="M449.394,363.399v-1.4c0-139.299,109.9-253.399,261.099-253.399s259.699,112.7,259.699,251.999v1.4
				c0,139.299-109.899,253.399-261.099,253.399C557.894,615.398,449.394,502.699,449.394,363.399z M857.493,363.399v-1.4
				c0-84-61.6-153.999-148.399-153.999c-86.8,0-147,68.6-147,152.599v1.4c0,84,61.6,154,148.399,154
				S857.493,447.399,857.493,363.399z"/>
		</defs>
		<clipPath id="SVGID_4_">
			<use xlink:href="#SVGID_3_"  overflow="visible"/>
		</clipPath>
		<rect x="708.49" y="45.48" clip-path="url(#SVGID_4_)" fill="#535252" width="275.986" height="602.97"/>
	</g>
	<g>
		<defs>
			<path id="SVGID_5_" d="M559.718,362.851v-0.852c0-84.735,63.338-154.141,150.479-154.141c87.14,0,149.671,68.555,149.671,153.29
				v0.852c0,84.735-63.338,154.141-150.479,154.141S559.718,447.585,559.718,362.851z M831.719,363.219v-1.22
				c0-73.187-50.85-134.176-122.503-134.176s-121.348,59.77-121.348,132.957v1.22c0,73.187,50.85,134.177,122.504,134.177
				C782.024,496.176,831.719,436.406,831.719,363.219z"/>
		</defs>
		<clipPath id="SVGID_6_">
			<use xlink:href="#SVGID_5_"  overflow="visible"/>
		</clipPath>
		<rect x="709.042" y="169.463" clip-path="url(#SVGID_6_)" fill="#FFFFFF" width="159.059" height="366.783"/>
	</g>
	<g>
	</g>
	<ellipse fill="#E0E0DF" cx="671.298" cy="1094.713" rx="182.963" ry="46.99"/>
	<polygon fill="#535252" points="479.706,553.982 450.49,604.661 417.561,604.721 463.257,525.455 	"/>
</g>
</svg>
