<?xml version="1.0" encoding="utf-8"?>
<!-- Generator: Adobe Illustrator 16.0.4, SVG Export Plug-In . SVG Version: 6.00 Build 0)  -->
<!DOCTYPE svg PUBLIC "-//W3C//DTD SVG 1.1//EN" "http://www.w3.org/Graphics/SVG/1.1/DTD/svg11.dtd">
<svg version="1.1" id="Layer_1" xmlns="http://www.w3.org/2000/svg" xmlns:xlink="http://www.w3.org/1999/xlink" x="0px" y="0px"
	 width="1679.664px" height="953.81px" viewBox="0 0 1679.664 953.81" enable-background="new 0 0 1679.664 953.81"
	 xml:space="preserve">
<rect x="-2282.334" y="-76.398" fill="none" width="1808" height="608"/>
<text transform="matrix(1 0 0 1 -2087.748 434.5986)"><tspan x="0" y="0" font-family="'Archer-Light'" font-size="700" letter-spacing="-17">R</tspan><tspan x="405.292" y="-70" font-family="'Archer-Book'" font-size="450" letter-spacing="11">O</tspan><tspan x="768.441" y="0" font-family="'Archer-Light'" font-size="600" letter-spacing="-15">SE</tspan></text>
<rect x="-2703.334" y="309.602" fill="none" width="2704" height="608"/>
<text transform="matrix(1 0 0 1 -2210.3682 820.5986)"><tspan x="0" y="0" font-family="'Archer-Light'" font-size="700" letter-spacing="-16">P</tspan><tspan x="380.09" y="0" font-family="'Archer-Book'" font-size="400" letter-spacing="-10">OUDRE</tspan></text>
<polygon fill="#FFFFFF" points="-1858.834,234.602 -1819.334,229.102 -1693.334,304.602 -1635.334,390.602 -1601.334,460.602 
	-1707.334,468.602 -1789.334,444.602 -1853.334,264.602 "/>
<path fill="none" stroke="#000000" stroke-width="28" stroke-miterlimit="10" d="M-1841.334,230.602c0,0,51.189,269,341.264,269
	c111.859,0,168.736-75.02,168.736-75.02"/>
<polygon fill="#FFFFFF" points="-859.834,709.602 -831.834,704.102 -747.172,759.393 -731.834,821.102 -682.104,869.726 
	-757.074,875.384 -815.068,858.409 -860.334,731.103 "/>
<path fill="none" stroke="#000000" stroke-width="22" stroke-miterlimit="10" d="M-853.848,705.349
	c0,0,36.205,190.253,241.363,190.253c79.113,0,119.34-53.059,119.34-53.059"/>
<rect x="-131.533" y="1091.37" fill="none" width="1808" height="608"/>
<text transform="matrix(1 0 0 1 94.4258 1600.9678)"><tspan x="0" y="0" font-family="'Archer-ExtraLight'" font-size="700" letter-spacing="-29">R</tspan><tspan x="384.998" y="-70" font-family="'Archer-Light'" font-size="450" letter-spacing="-11">O</tspan><tspan x="722.495" y="0" font-family="'Archer-ExtraLight'" font-size="600" letter-spacing="-15">SE</tspan></text>
<rect x="-547.533" y="1467.37" fill="none" width="2704" height="608"/>
<text transform="matrix(1 0 0 1 -19.167 1976.9678)"><tspan x="0" y="0" font-family="'Archer-ExtraLight'" font-size="700" letter-spacing="-52">P</tspan><tspan x="335.29" y="0" font-family="'Archer-Light'" font-size="400" letter-spacing="-10">OUDRE</tspan></text>
<polygon fill="#FFFFFF" points="312.967,1399.37 352.467,1393.87 478.467,1469.37 536.467,1555.37 570.467,1625.37 464.467,1633.37 
	382.467,1609.37 318.467,1429.37 "/>
<path fill="none" stroke="#000000" stroke-width="17" stroke-miterlimit="10" d="M334.467,1395.37c0,0,51.189,269,341.264,269
	c111.859,0,168.736-75.02,168.736-75.02"/>
<polygon fill="#FFFFFF" points="1264.901,1863.24 1293.081,1858.749 1375.703,1917.044 1388.815,1979.264 1436.768,2029.643 
	1361.643,2032.605 1304.295,2013.559 1263.63,1884.709 "/>
<path fill="none" stroke="#000000" stroke-width="17" stroke-miterlimit="10" d="M1275.953,1860.117
	c0,0,36.205,190.253,241.363,190.253c79.113,0,119.34-53.059,119.34-53.059"/>
<g>
	<path fill="none" d="M664.222,124.345c-75.149,0-129.149,60.299-129.149,136.799c0,76.049,54,136.799,129.149,136.799
		c75.6,0,129.149-60.3,129.149-136.799C793.371,185.094,739.821,124.345,664.222,124.345z"/>
	<path fill="none" d="M441.775,145.994c0-66.5-51.101-112-135.801-112h-85.398v225.399c23.799,0.7,50.399,0.7,78.398,0.7
		C385.075,260.094,441.775,220.894,441.775,145.994z"/>
	<path d="M343.075,271.993c71.399-12.6,117.6-57.399,117.6-125.999c0-73.5-59.5-127.4-153.3-127.4H135.876v15.4h66.5v429.798h-66.5
		v15.4h152.6v-15.4h-67.899V274.793c21.699,0.7,46.199,0.7,77.699,0.7c9.1,0,18.9-0.7,26.6-1.399l1.054,1.696l17.964-2.501
		L343.075,271.993z M298.975,260.094c-27.999,0-54.6,0-78.398-0.7V33.994h85.398c84.7,0,135.801,45.5,135.801,112
		C441.775,220.894,385.075,260.094,298.975,260.094z"/>
	<path d="M664.672,108.145c-84.6,0-148.499,67.499-148.499,152.999c0,85.499,63.449,152.999,147.599,152.999
		c85.05,0,148.499-67.5,148.499-152.999C812.271,175.644,749.271,108.145,664.672,108.145z M664.222,397.942
		c-75.149,0-129.149-60.75-129.149-136.799c0-76.5,54-136.799,129.149-136.799c75.6,0,129.149,60.749,129.149,136.799
		C793.371,337.643,739.821,397.942,664.222,397.942z"/>
	<path d="M993.772,270.99c-51.601-21-102.602-41.4-102.602-96.001c0-46.801,40.801-82.801,96.001-82.801
		c40.2,0,78.001,19.8,87.601,44.4c-7.8,4.2-12,10.2-12,18.601c0,9,7.801,15.6,15.601,15.6c9,0,16.2-7.8,16.2-19.8
		c0-34.2-46.801-72.001-106.802-72.001c-62.4,0-111.001,40.801-111.001,97.201c0,61.2,54.001,85.801,106.802,106.801
		c51.601,21,102.601,44.4,102.601,99.001c0,52.201-40.2,89.401-104.401,89.401c-52.8,0-90.601-24.601-100.801-50.4
		c8.4-3,13.801-10.801,13.801-18.601c0-9-7.801-16.2-15.601-16.2c-9.601,0-16.8,7.8-16.8,21.601c0,34.2,46.2,76.801,118.201,76.801
		c70.2,0,120.601-41.4,120.601-103.802C1101.173,319.591,1046.572,291.99,993.772,270.99z"/>
	<polygon points="1397.864,170.789 1397.864,84.389 1125.462,84.389 1125.462,97.589 1182.462,97.589 1182.462,465.992 
		1125.462,465.992 1125.462,479.192 1397.864,479.192 1397.864,392.792 1382.864,392.792 1382.864,465.992 1198.062,465.992 
		1198.062,284.19 1343.264,284.19 1343.264,270.391 1198.062,270.391 1198.062,97.589 1382.864,97.589 1382.864,170.789 	"/>
</g>
<path fill="none" stroke="#000000" stroke-width="17" stroke-miterlimit="10" d="M334.467,273.595c0,0,51.189,269,341.264,269
	c111.859,0,168.736-75.02,168.736-75.02"/>
<g>
	<path fill="none" d="M485.141,601.996c-66.799,0-114.798,53.6-114.798,121.599c0,67.599,47.999,121.598,114.798,121.598
		c67.199,0,114.799-53.599,114.799-121.598C599.939,655.995,552.34,601.996,485.141,601.996z"/>
	<path fill="none" d="M193.853,409.994h-83.3v247.099c17.5,0.7,54.6,1.4,83.3,1.4c94.499,0,143.499-50.399,143.499-124.6
		C337.352,463.194,281.352,409.994,193.853,409.994z"/>
	<path fill="none" d="M999.734,605.996h-44.399v235.196h47.199c84.799,0,128.398-49.199,128.398-119.598
		C1130.933,652.396,1083.333,605.996,999.734,605.996z"/>
	<path fill="none" d="M1334.367,665.995c0-36.799-28.399-59.999-74.398-59.999h-44.399v120.798c12,0.4,26.399,0.801,40.399,0.801
		C1301.968,727.595,1334.367,706.395,1334.367,665.995z"/>
	<path d="M193.152,394.594H25.854v15.4h66.5v429.798h-66.5v15.4h152.6v-15.4h-67.9V672.493c16.1,0.7,54.6,1.4,83.3,1.4
		c100.1,0,161.699-54.601,161.699-140.7C355.552,452.694,289.052,394.594,193.152,394.594z M193.853,658.493
		c-28.7,0-65.8-0.7-83.3-1.4V409.994h83.3c87.499,0,143.499,53.2,143.499,123.899C337.352,608.094,288.352,658.493,193.853,658.493z
		"/>
	<path d="M485.541,587.597c-75.199,0-131.998,59.999-131.998,135.998c0,75.998,56.398,135.998,131.197,135.998
		c75.6,0,131.999-60,131.999-135.998C616.739,647.596,560.74,587.597,485.541,587.597z M485.141,845.192
		c-66.799,0-114.798-53.999-114.798-121.598c0-67.999,47.999-121.599,114.798-121.599c67.199,0,114.799,53.999,114.799,121.599
		C599.939,791.594,552.34,845.192,485.141,845.192z"/>
	<path d="M790.458,605.996h37.6v158.397c0,53.6-26.399,80.799-74.799,80.799s-74.399-27.6-74.399-81.198V605.996h37.6v-14h-90.398
		v14h36.8v159.598c0,59.199,31.6,93.999,89.998,93.999c58.399,0,91.199-34.8,91.199-94.799V605.996h36.799v-14h-90.398V605.996z"/>
	<path d="M1000.134,591.996h-97.599v14h36.4v235.196h-36.4v14h98.399c92.798,0,146.397-54.799,146.397-133.198
		C1147.332,644.796,1092.133,591.996,1000.134,591.996z M1002.534,841.192h-47.199V605.996h44.399
		c83.599,0,131.198,46.399,131.198,115.599C1130.933,791.993,1087.333,841.192,1002.534,841.192z"/>
	<path d="M1351.167,665.596c0-42.8-34.8-73.6-89.998-73.6h-98.399v14h36.4v235.196h-36.4v14h89.999v-14h-37.199v-99.998
		c10.8,0.399,25.199,0.399,39.6,0.399c4.19,0,8.632-0.26,12.505-0.57l21.503-3.428
		C1326.283,728.461,1351.167,703.447,1351.167,665.596z M1215.569,726.794V605.996h44.399c45.999,0,74.398,23.2,74.398,59.999
		c0,40.399-32.399,61.6-78.398,61.6C1241.969,727.595,1227.569,727.194,1215.569,726.794z"/>
	<polygon points="1586.282,650.396 1586.282,591.996 1401.086,591.996 1401.086,605.996 1437.485,605.996 1437.485,841.192 
		1401.086,841.192 1401.086,855.192 1586.282,855.192 1586.282,796.793 1570.283,796.793 1570.283,841.192 1453.885,841.192 
		1453.885,727.994 1547.083,727.994 1547.083,713.595 1453.885,713.595 1453.885,605.996 1570.283,605.996 1570.283,650.396 	"/>
</g>
<path fill="none" stroke="#000000" stroke-width="17" stroke-miterlimit="10" d="M1275.953,738.342
	c0,0,36.205,190.253,241.363,190.253c79.113,0,119.34-53.059,119.34-53.059"/>
<g>
	<path fill="none" d="M-347.317-1100.499c-72.449,0-122.849,57.149-122.849,129.599c0,72.899,50.399,130.499,122.849,130.499
		s122.85-57.149,122.85-129.599C-224.468-1042.899-274.868-1100.499-347.317-1100.499z"/>
	<path fill="none" d="M-594.66-1083.5c0-64.399-49.7-105-130.199-105h-77.7v211.399c21,0.7,46.2,1.4,70.7,1.4
		C-651.359-975.7-594.66-1012.8-594.66-1083.5z"/>
	<path d="M-676.367-957.198l-0.192-0.302c66.5-15.4,111.299-59.5,111.299-126.7c0-74.899-60.899-128.799-157.499-128.799h-172.199
		v24.5h63.7v411.598h-63.7v24.5h157.499v-24.5h-65.1V-951.9c18.9,0.7,44.1,0.7,69.3,0.7c7.54,0,15.544-0.482,22.453-1.045
		l-0.028-0.153L-676.367-957.198z M-802.559-977.101V-1188.5h77.7c80.5,0,130.199,40.6,130.199,105c0,70.7-56.7,107.8-137.199,107.8
		C-756.359-975.7-781.559-976.4-802.559-977.101z"/>
	<path d="M-346.417-1123.899c-85.95,0-149.85,67.05-149.85,153.899c0,85.499,63.45,152.999,148.049,152.999
		c85.95,0,149.85-67.05,149.85-153.899C-198.368-1056.399-261.818-1123.899-346.417-1123.899z M-347.317-840.401
		c-72.449,0-122.849-57.6-122.849-130.499c0-72.449,50.399-129.599,122.849-129.599s122.85,57.6,122.85,130.499
		C-224.468-897.551-274.868-840.401-347.317-840.401z"/>
	<path d="M12.085-964.804c-52.801-21-97.802-40.8-97.802-91.201c0-43.2,36.601-75.601,89.401-75.601c33,0,69.001,15,79.201,34.2
		c-6.601,5.4-11.4,12.601-11.4,21.601c0,12,9.6,21,21,21s21.601-9.6,21.601-25.2c0-36-48.601-73.2-109.201-73.2
		c-67.201,0-114.602,41.4-114.602,99.001c0,63.601,52.801,88.2,112.201,111.601c49.2,19.801,94.801,41.4,94.801,91.201
		c0,49.2-37.8,83.4-97.801,83.4c-47.4,0-82.201-19.2-94.201-40.2c7.801-4.8,13.2-13.2,13.2-22.8c0-11.4-9.6-20.4-20.4-20.4
		c-12.6,0-22.2,10.8-22.2,27.601c0,34.2,48.001,77.4,122.401,77.4c70.801,0,123.002-42,123.002-106.801
		C121.286-916.203,69.686-942.003,12.085-964.804z"/>
	<polygon points="426.501,-1059.604 426.501,-1147.205 148.697,-1147.205 148.697,-1126.205 203.298,-1126.205 203.298,-773.401 
		148.697,-773.401 148.697,-752.401 426.501,-752.401 426.501,-840.002 402.5,-840.002 402.5,-773.401 227.898,-773.401 
		227.898,-943.203 367.7,-943.203 367.7,-964.804 227.898,-964.804 227.898,-1126.205 402.5,-1126.205 402.5,-1059.604 	"/>
</g>
<path fill="none" stroke="#000000" stroke-width="28" stroke-miterlimit="10" d="M-693.334-956.398c0,0,51.189,269,341.264,269
	c111.859,0,168.736-75.02,168.736-75.02"/>
<g>
	<path fill="none" d="M362.826-575.398c0-35.6-28-55.199-70.799-55.199h-39.6V-518.6c9.6,0.4,23.199,0.8,35.199,0.8
		C330.427-517.8,362.826-537.399,362.826-575.398z"/>
	<path fill="none" d="M-831.349-823.5h-79.1V-590.4c17.5,0.7,51.8,1.4,79.8,1.4c86.1,0,134.399-46.2,134.399-117.6
		C-696.25-776.6-752.25-823.5-831.349-823.5z"/>
	<path fill="none" d="M24.553-630.598h-39.6v223.196h42.799c83.6,0,125.198-47.599,125.198-115.198
		C152.95-588.198,102.951-630.598,24.553-630.598z"/>
	<path fill="none" d="M-499.961-634.598c-64.399,0-109.198,50.799-109.198,115.198c0,64.799,44.799,115.998,109.198,115.998
		c64.399,0,109.198-50.799,109.198-115.198C-390.763-583.398-435.562-634.598-499.961-634.598z"/>
	<path d="M-832.749-848h-170.1v24.5h63.7v411.598h-63.7v24.5h158.899v-24.5h-66.5V-565.9c16.1,0.7,51.8,1.399,79.1,1.399
		c100.1,0,163.799-55.3,163.799-142.799C-667.55-790.6-736.85-848-832.749-848z M-830.649-589c-28,0-62.3-0.7-79.8-1.4V-823.5h79.1
		c79.1,0,135.1,46.9,135.1,116.9C-696.25-635.2-744.549-589-830.649-589z"/>
	<path d="M-499.161-655.397c-76.399,0-133.198,59.6-133.198,136.798c0,75.999,56.399,135.998,131.598,135.998
		c76.398,0,133.198-59.599,133.198-136.798C-367.562-595.398-423.962-655.397-499.161-655.397z M-499.961-403.401
		c-64.399,0-109.198-51.199-109.198-115.998c0-64.399,44.799-115.198,109.198-115.198c64.399,0,109.198,51.199,109.198,115.998
		C-390.763-454.2-435.562-403.401-499.961-403.401z"/>
	<path d="M-189.922-630.598h35.999V-477c0,49.6-26.8,73.599-72.398,73.599c-45.6,0-71.6-24.399-71.6-74.398v-152.798h36v-20h-93.199
		v20h35.2V-475.8c0,58.398,32.799,93.198,93.198,93.198c59.999,0,94.799-35.199,94.799-94.799v-153.197h35.199v-20h-93.198V-630.598
		z"/>
	<path d="M24.952-650.598h-97.998v20h35.199v223.196h-35.199v20h98.799c93.598,0,150.397-55.6,150.397-134.397
		C176.15-599.398,115.352-650.598,24.952-650.598z M27.752-407.401h-42.799v-223.196h39.6c78.398,0,128.397,42.399,128.397,107.998
		C152.95-455,111.352-407.401,27.752-407.401z"/>
	<path d="M385.626-575.799c0-44.399-35.2-74.799-92.398-74.799h-98.799v20h35.199v223.196h-35.199v20h93.198v-20h-35.199V-498.6
		c8.8,0.4,23.199,0.8,34.399,0.8c4.699,0,9.382-0.328,13.786-0.687l26.097-5.126C361.538-514.137,385.626-539.239,385.626-575.799z
		 M252.428-518.6v-111.998h39.6c42.799,0,70.799,19.6,70.799,55.199c0,37.999-32.399,57.599-75.199,57.599
		C275.627-517.8,262.027-518.199,252.428-518.6z"/>
	<polygon points="626.182,-590.998 626.182,-650.598 437.385,-650.598 437.385,-630.598 472.584,-630.598 472.584,-407.401 
		437.385,-407.401 437.385,-387.401 626.182,-387.401 626.182,-447 604.182,-447 604.182,-407.401 495.384,-407.401 495.384,-511.8 
		584.582,-511.8 584.582,-531.799 495.384,-531.799 495.384,-630.598 604.182,-630.598 604.182,-590.998 	"/>
</g>
<path fill="none" stroke="#000000" stroke-width="22" stroke-miterlimit="10" d="M306.152-502.651
	c0,0,36.205,190.253,241.363,190.253c79.113,0,119.34-53.059,119.34-53.059"/>
<g>
	<path fill="none" d="M-1761.772,1464.824c0-69.3-51.8-116.199-142.799-116.199h-93.1v235.199c27.3,0.7,56,1.399,86.1,1.399
		C-1821.972,1585.224-1761.772,1543.225-1761.772,1464.824z"/>
	<path fill="none" d="M-1539.272,1439.425c-77.85,0-134.999,62.55-134.999,142.649c0,79.649,57.149,142.648,134.999,142.648
		s134.999-62.549,134.999-142.648C-1404.273,1502.425-1461.423,1439.425-1539.272,1439.425z"/>
	<path d="M-1872.746,1592.058l-0.326-0.533c74.199-11.2,121.799-56,121.799-126.7c0-73.499-56.7-125.3-152.6-125.3h-174.299v9.101
		h70v442.398h-70v9.1h153.999v-9.1h-73.5v-198.1c32.9,1.4,52.5,1.4,86.1,1.4c6.408,0,13.409-0.3,19.449-0.703l0.03-0.488
		L-1872.746,1592.058z M-1997.671,1583.824v-235.199h93.1c91,0,142.799,46.899,142.799,116.199c0,78.4-60.2,120.399-149.799,120.399
		C-1941.671,1585.224-1970.371,1584.524-1997.671,1583.824z"/>
	<path d="M-1539.272,1429.525c-83.699,0-147.149,67.949-147.149,152.549c0,85.049,63,152.549,147.149,152.549
		c83.699,0,147.149-67.949,147.149-152.549C-1392.123,1497.024-1455.123,1429.525-1539.272,1429.525z M-1539.272,1724.723
		c-77.85,0-134.999-62.999-134.999-142.648c0-80.1,57.149-142.649,134.999-142.649s134.999,63,134.999,142.649
		C-1404.273,1662.174-1461.423,1724.723-1539.272,1724.723z"/>
	<path d="M-1193.824,1594.321c-51-21.001-105.601-42.601-105.601-102.602c0-48,43.2-85.801,102.601-85.801
		c48.001,0,87.602,26.4,93.602,55.801c-6.601,1.8-10.2,6.6-10.2,12.6c0,6.601,4.8,10.801,10.2,10.801c6,0,10.8-5.4,10.8-15
		c0-34.801-44.4-71.401-104.401-71.401c-64.2,0-111.001,40.2-111.001,93.602c0,63.601,56.4,88.2,108.602,109.201
		c51,20.399,105.001,46.2,105.001,105.601c0,54.601-44.4,92.401-110.401,92.401c-60.001,0-100.801-31.201-107.401-61.201
		c7.2-1.2,11.4-6.6,11.4-12.6c0-6.601-5.4-11.4-10.2-11.4c-6.6,0-11.4,5.4-11.4,16.2c0,34.2,45.601,76.2,117.602,76.2
		c69.001,0,118.801-40.8,118.801-100.2C-1085.823,1643.521-1141.623,1614.721-1193.824,1594.321z"/>
	<polygon points="-795.604,1493.52 -795.604,1405.319 -1069.207,1405.319 -1069.207,1413.119 -1009.206,1413.119 
		-1009.206,1792.323 -1069.207,1792.323 -1069.207,1800.123 -795.604,1800.123 -795.604,1711.922 -804.004,1711.922 
		-804.004,1792.323 -1000.206,1792.323 -1000.206,1602.121 -850.204,1602.121 -850.204,1594.321 -1000.206,1594.321 
		-1000.206,1413.119 -804.004,1413.119 -804.004,1493.52 	"/>
</g>
<path fill="none" stroke="#000000" stroke-width="9" stroke-miterlimit="10" d="M-1882.092,1590.133c0,0,51.189,269,341.264,269
	c111.859,0,168.736-75.02,168.736-75.02"/>
<g>
	<path fill="none" d="M-1697.231,1927.727c-69.199,0-119.998,55.6-119.998,126.799c0,70.799,50.799,126.798,119.998,126.798
		c69.199,0,119.998-55.6,119.998-126.798C-1577.233,1983.727-1628.032,1927.727-1697.231,1927.727z"/>
	<path fill="none" d="M-1191.196,1931.727h-48.799v245.597h50.799c86.399,0,131.599-49.999,131.599-123.599
		C-1057.598,1981.727-1103.197,1931.727-1191.196,1931.727z"/>
	<path fill="none" d="M-2014.623,1734.625h-94.5v256.898c20.3,1.4,51.1,2.101,90.299,2.101c100.1,0,150.5-53.899,150.5-130.199
		C-1868.324,1788.524-1923.624,1734.625-2014.623,1734.625z"/>
	<path fill="none" d="M-858.799,1995.726c0-37.999-29.2-63.999-77.6-63.999h-48.799v128.799c13.6,0.399,28.8,0.399,44.799,0.399
		C-891.199,2060.925-858.799,2038.525-858.799,1995.726z"/>
	<path d="M-2015.323,1725.524h-174.299v9.101h70v442.398h-70v9.1h152.599v-9.1h-72.1v-176.399c18.2,0.7,51.1,2.1,90.299,2.1
		c103.6,0,161-57.399,161-139.299C-1857.824,1782.925-1918.724,1725.524-2015.323,1725.524z M-2018.823,1993.624
		c-39.2,0-70-0.7-90.299-2.101v-256.898h94.5c91,0,146.299,53.899,146.299,128.8
		C-1868.324,1939.725-1918.724,1993.624-2018.823,1993.624z"/>
	<path d="M-1697.231,1918.927c-74.399,0-130.798,60.399-130.798,135.599c0,75.599,55.999,135.598,130.798,135.598
		c74.398,0,130.798-60.399,130.798-135.598C-1566.434,1978.926-1622.433,1918.927-1697.231,1918.927z M-1697.231,2181.323
		c-69.199,0-119.998-55.999-119.998-126.798c0-71.199,50.799-126.799,119.998-126.799c69.199,0,119.998,56,119.998,126.799
		C-1577.233,2125.724-1628.032,2181.323-1697.231,2181.323z"/>
	<path d="M-1395.436,1931.727h39.199v162.798c0,57.199-26.399,86.799-77.198,86.799c-50.8,0-77.199-30.399-77.199-86.799v-162.798
		h38.8v-8.8h-87.199v8.8h38v163.598c0,60.399,30.799,94.799,87.198,94.799c56.799,0,87.599-34.399,87.599-94.799v-163.598h38v-8.8
		h-87.199V1931.727z"/>
	<path d="M-1191.196,1922.927h-97.198v8.8h38v245.597h-38v8.8h98.398c91.999,0,142.798-54.399,142.798-132.398
		C-1047.198,1976.926-1097.598,1922.927-1191.196,1922.927z M-1189.196,2177.323h-50.799v-245.597h48.799
		c87.999,0,133.599,50,133.599,121.998C-1057.598,2127.324-1102.797,2177.323-1189.196,2177.323z"/>
	<path d="M-915.198,2067.725c40.799-7.199,67.199-32.799,67.199-71.999c0-41.999-34-72.799-87.599-72.799h-97.999v8.8h38v245.597
		h-38v8.8h87.199v-8.8h-38.8v-107.998c12.399,0.399,26.399,0.399,44.399,0.399c5.2,0,10.8-0.399,15.199-0.8l0.495,0.797
		l10.682-0.768L-915.198,2067.725z M-940.398,2060.925c-15.999,0-31.199,0-44.799-0.399v-128.799h48.799
		c48.399,0,77.6,26,77.6,63.999C-858.799,2038.525-891.199,2060.925-940.398,2060.925z"/>
	<polygon points="-617.961,1980.526 -617.961,1922.927 -799.559,1922.927 -799.559,1931.727 -761.559,1931.727 -761.559,2177.323 
		-799.559,2177.323 -799.559,2186.123 -617.961,2186.123 -617.961,2128.523 -627.961,2128.523 -627.961,2177.323 -751.159,2177.323 
		-751.159,2056.125 -654.36,2056.125 -654.36,2046.925 -751.159,2046.925 -751.159,1931.727 -627.961,1931.727 -627.961,1980.526 	
		"/>
</g>
<path fill="none" stroke="#000000" stroke-width="9" stroke-miterlimit="10" d="M-921.605,2068.88
	c0,0,38.613,240.886,257.422,240.886c84.378,0,127.281-67.179,127.281-67.179"/>
<g>
	<path d="M1480.865,560.006l49.6-39.6c4.399-3.6,8.399-6,12.399-6c5.6,0,10.8,4.801,10.8,11.6c0,4.4-4.8,9.201-11.6,12.4l-57.6,27.6
		L1480.865,560.006z"/>
</g>
</svg>
